<svg id="Layer_1" data-name="Layer 1" xmlns="http://www.w3.org/2000/svg" viewBox="0 0 575.3 108.7"><defs><style>.cls-1{fill:#c7c8ca;}.cls-2{fill:#f26522;}</style></defs><title>nevrfails-Brand-IdentitySignature-Horizontal</title><path class="cls-1" d="M37.14,41.84V88.09c0,2.85,1.81,5.16,4,5.16H70.33L37.14,41.84Z"/><path class="cls-1" d="M99.33,15.45H70.19l33.19,51.41V20.62c0-2.86-1.81-5.17-4-5.17Z"/><polygon class="cls-2" points="109.16 93.25 81.78 93.25 31.36 15.45 58.73 15.45 109.16 93.25"/><path class="cls-1" d="M142.36,80.7V28H160C171.1,54.67,173.37,60.75,174,63h.26c-.54-6.16-.73-15.19-.73-23.37V28h13.3V80.7h-17C157.73,50.87,156,46.14,155.3,44.16h-.15c.46,6.62.48,15.64.48,24.76V80.7Z"/><path class="cls-1" d="M233.29,59H211.21V69.8h24.61l-1.63,10.9h-37V28h37V39h-23v9.1h22.08Z"/><path class="cls-1" d="M255.23,80.7l-16-52.7h15.35c.44,2.13,5.19,20,5.62,22.15,1.76,6.79,3.1,12.53,4,17.89h.27c1-5.45,2.57-11.49,4.25-17.64.48-2.21,5.53-20.27,6-22.4H289.5L272.56,80.7Z"/><path class="cls-1" d="M308.49,60.46V80.7H294.35V28h24c11.57,0,17.89,6.08,17.89,14.45,0,7.08-3.59,10.62-8.11,12.42,5.48,2.1,7.12,6.56,7.12,12.63v1.62a82.64,82.64,0,0,0,.61,11.58H322c-.77-2.18-1-5.55-1-11.59V67.62c0-5.51-1.81-7.16-7.41-7.16Zm0-10.35h6.11c4.31,0,7.37-1.64,7.37-6.1,0-4.13-2.76-5.72-6.45-5.72h-7Z"/><path class="cls-1" d="M344.4,28h36.43V38.94H358.65v10.4h20.79v10.9H358.65V80.7H344.4Z"/><path class="cls-1" d="M397.51,70,394.85,80.7H380.6L395.34,28h19.55l15.43,52.7H415.21L412.28,70Zm12.37-11.32c-2.14-7.93-4-15.53-5.06-21h-.21c-1.07,5.8-2.87,13.44-4.84,21Z"/><path class="cls-1" d="M450.41,28V80.7H435.87V28Z"/><path class="cls-1" d="M460.74,28h14.54V69.7h22.28l-1.48,11H460.74Z"/><path class="cls-1" d="M515.11,64.59c.55,4.29,3,6.91,7.84,6.91s6.38-2,6.38-4.92c0-3.81-2.52-5.52-9.7-7.5-13.11-3.54-17.05-8.55-17.05-15.92,0-10.62,8.64-16.1,19.67-16.1,13,0,19.8,6.28,20.39,16H528.9c-.42-3.3-1.93-6-6.59-6-3.58,0-5.52,1.65-5.52,4.46,0,3.27,2.35,4.22,9.4,6.22,13.89,4,17.75,9.22,17.75,17.22,0,10-7.45,16.66-21.42,16.66-13,0-20.69-6.53-21.28-17Z"/></svg>